<?xml version="1.0" standalone="no"?>
<!DOCTYPE svg PUBLIC "-//W3C//DTD SVG 20010904//EN"
 "http://www.w3.org/TR/2001/REC-SVG-20010904/DTD/svg10.dtd">
<svg version="1.0" xmlns="http://www.w3.org/2000/svg"
 width="293.000000pt" height="99.000000pt" viewBox="0 0 293.000000 99.000000"
 preserveAspectRatio="xMidYMid meet">
<metadata>
Created by potrace 1.16, written by Peter Selinger 2001-2019
</metadata>
<g transform="translate(0.000000,99.000000) scale(0.100000,-0.100000)"
fill="#000000" stroke="none">
<path d="M545 876 c-59 -27 -77 -57 -86 -146 -9 -96 -30 -133 -96 -174 -78
-50 -106 -110 -84 -179 33 -99 154 -133 229 -64 36 33 43 52 51 137 9 89 23
113 94 160 83 54 107 125 69 199 -33 67 -113 97 -177 67z"/>
<path d="M1477 634 c-4 -4 -7 -24 -7 -43 0 -28 -5 -39 -22 -46 -32 -15 -33
-33 -4 -45 25 -9 26 -13 26 -91 0 -76 2 -82 29 -110 32 -32 71 -38 91 -14 15
19 -3 45 -31 45 -28 0 -40 34 -37 103 3 58 5 62 28 65 14 2 29 8 34 12 14 14
-13 40 -40 40 -20 0 -23 6 -26 42 -3 41 -22 60 -41 42z"/>
<path d="M735 546 c-51 -22 -85 -71 -85 -122 0 -90 51 -144 136 -144 45 0 59
5 89 31 77 68 63 188 -28 230 -49 22 -71 23 -112 5z"/>
<path d="M1195 538 c-44 -15 -74 -47 -86 -89 -34 -113 64 -208 171 -166 33 13
40 13 52 0 8 -7 22 -11 32 -7 15 6 16 21 14 133 l-3 126 -45 1 c-25 0 -58 4
-75 7 -16 3 -43 1 -60 -5z m114 -74 c12 -15 21 -40 21 -56 0 -38 -48 -88 -85
-88 -32 0 -85 49 -85 80 0 26 25 77 42 83 7 3 30 6 50 6 28 1 41 -5 57 -25z"/>
<path d="M1725 538 c-99 -35 -126 -160 -50 -227 105 -92 250 -16 232 121 -7
49 -47 94 -96 108 -42 12 -47 12 -86 -2z m105 -68 c31 -31 28 -102 -6 -129
-31 -25 -55 -26 -93 -6 -32 16 -41 33 -41 78 0 67 92 105 140 57z"/>
<path d="M1977 539 c-15 -9 -17 -26 -17 -128 0 -123 9 -151 45 -137 12 4 15
24 15 91 0 105 9 125 55 125 46 0 55 -20 55 -125 0 -70 3 -87 16 -92 30 -11
44 25 44 112 0 88 8 105 50 105 43 0 50 -16 50 -117 0 -74 3 -95 15 -99 8 -4
22 0 31 7 13 10 15 31 12 111 -3 90 -5 100 -30 124 -31 32 -93 36 -132 10 -15
-9 -27 -12 -31 -6 -11 17 -69 27 -103 18 -21 -6 -38 -6 -45 1 -8 6 -18 6 -30
0z"/>
</g>
</svg>
